<svg xmlns="http://www.w3.org/2000/svg" width="21" height="21" viewBox="0 0 21 21" fill="none">
  <path d="M6.08365 0.308951C5.01965 0.359151 4.29305 0.528951 3.65785 0.778551C3.00045 1.03475 2.44325 1.37855 1.88885 1.93495C1.33445 2.49135 0.993051 3.04895 0.738651 3.70735C0.492451 4.34395 0.325651 5.07115 0.278651 6.13575C0.231651 7.20035 0.221251 7.54255 0.226451 10.2582C0.231651 12.9738 0.243651 13.3142 0.295251 14.381C0.346051 15.4448 0.515251 16.1712 0.764851 16.8066C1.02145 17.464 1.36485 18.021 1.92145 18.5756C2.47805 19.1302 3.03525 19.4708 3.69525 19.7256C4.33125 19.9714 5.05865 20.139 6.12305 20.1856C7.18745 20.2322 7.53005 20.243 10.2449 20.2378C12.9597 20.2326 13.3014 20.2206 14.368 20.17C15.4346 20.1194 16.1572 19.949 16.7928 19.7006C17.4502 19.4434 18.0076 19.1006 18.5618 18.5438C19.116 17.987 19.4572 17.429 19.7114 16.7702C19.9578 16.1342 20.1252 15.4068 20.1714 14.3432C20.218 13.2758 20.229 12.935 20.2238 10.2198C20.2186 7.50455 20.2064 7.16415 20.1558 6.09775C20.1052 5.03135 19.9358 4.30715 19.6864 3.67135C19.4294 3.01395 19.0864 2.45735 18.53 1.90235C17.9736 1.34735 17.4152 1.00635 16.7566 0.752751C16.1202 0.506551 15.3932 0.338751 14.3288 0.292751C13.2644 0.246751 12.9219 0.234951 10.2061 0.240151C7.49025 0.245351 7.15025 0.256951 6.08365 0.308951ZM6.20045 18.3866C5.22545 18.3442 4.69605 18.1822 4.34325 18.0466C3.87605 17.8666 3.54325 17.649 3.19165 17.3008C2.84005 16.9526 2.62405 16.6186 2.44165 16.1524C2.30465 15.7996 2.13965 15.2708 2.09405 14.2958C2.04445 13.242 2.03405 12.9256 2.02825 10.2558C2.02245 7.58595 2.03265 7.26995 2.07885 6.21575C2.12045 5.24155 2.28345 4.71155 2.41885 4.35895C2.59885 3.89115 2.81565 3.55895 3.16465 3.20755C3.51365 2.85615 3.84665 2.63975 4.31325 2.45735C4.66565 2.31975 5.19445 2.15615 6.16905 2.10975C7.22365 2.05975 7.53965 2.04975 10.2091 2.04395C12.8785 2.03815 13.1952 2.04815 14.2502 2.09455C15.2244 2.13695 15.7546 2.29835 16.1068 2.43455C16.5742 2.61455 16.9068 2.83075 17.2582 3.18035C17.6096 3.52995 17.8262 3.86175 18.0086 4.32935C18.1464 4.68075 18.31 5.20935 18.356 6.18455C18.4062 7.23915 18.4176 7.55535 18.4224 10.2246C18.4272 12.8938 18.4178 13.2108 18.3716 14.2646C18.329 15.2396 18.1674 15.7692 18.0316 16.1224C17.8516 16.5894 17.6346 16.9224 17.2854 17.2736C16.9362 17.6248 16.6036 17.8412 16.1368 18.0236C15.7848 18.161 15.2554 18.325 14.2816 18.3714C13.227 18.421 12.911 18.4314 10.2407 18.4372C7.57025 18.443 7.25525 18.4322 6.20065 18.3866M14.3526 4.89435C14.353 5.13171 14.4238 5.36361 14.556 5.56074C14.6882 5.75787 14.8759 5.91136 15.0954 6.00181C15.3148 6.09226 15.5562 6.11559 15.7889 6.06887C16.0216 6.02215 16.2352 5.90746 16.4027 5.73932C16.5703 5.57118 16.6842 5.35713 16.73 5.12425C16.7759 4.89137 16.7517 4.65012 16.6604 4.43101C16.5692 4.21189 16.415 4.02476 16.2174 3.89328C16.0198 3.7618 15.7876 3.69188 15.5502 3.69235C15.2321 3.69299 14.9271 3.81997 14.7026 4.04538C14.478 4.27079 14.3521 4.57616 14.3526 4.89435ZM5.09065 10.249C5.09625 13.085 7.39945 15.3788 10.2349 15.3734C13.0703 15.368 15.3656 13.065 15.3602 10.229C15.3548 7.39295 13.0511 5.09855 10.2153 5.10415C7.37945 5.10975 5.08525 7.41335 5.09065 10.249ZM6.89185 10.2454C6.89055 9.58607 7.08477 8.94121 7.44997 8.39231C7.81516 7.84341 8.33492 7.41513 8.94351 7.16163C9.55211 6.90813 10.2222 6.84079 10.8691 6.96813C11.516 7.09547 12.1105 7.41177 12.5776 7.87703C13.0447 8.34229 13.3634 8.93561 13.4933 9.58197C13.6232 10.2283 13.5585 10.8987 13.3074 11.5083C13.0563 12.1179 12.6301 12.6393 12.0827 13.0067C11.5352 13.3741 10.8911 13.5708 10.2318 13.5722C9.79409 13.5731 9.36043 13.4877 8.95565 13.321C8.55087 13.1543 8.18289 12.9095 7.87273 12.6006C7.56257 12.2917 7.31631 11.9247 7.14801 11.5206C6.97971 11.1164 6.89266 10.6831 6.89185 10.2454Z" fill="white"/>
</svg>