<svg xmlns="http://www.w3.org/2000/svg" width="21" height="21" viewBox="0 0 21 21" fill="none">
  <g clip-path="url(#clip0_7064_2999)">
    <path d="M16.8328 4.24784C15.7537 3.54551 14.9755 2.42127 14.7323 1.11141C14.6801 0.828474 14.6509 0.537005 14.6509 0.239014H11.2075L11.202 14.0188C11.1442 15.562 9.87217 16.8006 8.31325 16.8006C7.82844 16.8006 7.37227 16.6797 6.97035 16.4685C6.04896 15.9844 5.41846 15.0202 5.41846 13.9105C5.41846 12.3167 6.71715 11.0199 8.31274 11.0199C8.61066 11.0199 8.89652 11.069 9.16681 11.1533V7.64313C8.88698 7.60501 8.60262 7.58143 8.31274 7.58143C4.8181 7.58143 1.97507 10.4204 1.97507 13.9105C1.97507 16.0516 3.04617 17.9464 4.68095 19.0922C5.71035 19.8141 6.96282 20.239 8.31325 20.239C11.8079 20.239 14.6509 17.4001 14.6509 13.9105V6.92274C16.0014 7.89045 17.6562 8.46085 19.4417 8.46085V5.02242C18.4802 5.02242 17.5844 4.73697 16.8328 4.24784Z" fill="white"/>
  </g>
  <defs>
    <clipPath id="clip0_7064_2999">
      <rect width="20" height="20" fill="white" transform="translate(0.72522 0.239014)"/>
    </clipPath>
  </defs>
</svg>